<svg width="20" height="20" viewBox="0 0 20 20" fill="none" xmlns="http://www.w3.org/2000/svg">
<path d="M11.6667 8.05539C12.127 8.05539 12.5001 8.42849 12.5001 8.88873V13.6109C12.5001 14.0712 12.127 14.4443 11.6667 14.4443C11.2065 14.4443 10.8334 14.0712 10.8334 13.6109V8.88873C10.8334 8.42849 11.2065 8.05539 11.6667 8.05539Z" fill="#A72608"/>
<path d="M9.16672 8.88873C9.16672 8.42849 8.79363 8.05539 8.33339 8.05539C7.87315 8.05539 7.50005 8.42849 7.50005 8.88873V13.6109C7.50005 14.0712 7.87315 14.4443 8.33339 14.4443C8.79363 14.4443 9.16672 14.0712 9.16672 13.6109V8.88873Z" fill="#A72608"/>
<path fill-rule="evenodd" clip-rule="evenodd" d="M6.94443 4.72206C6.94443 3.03452 8.31245 1.6665 9.99999 1.6665C11.6875 1.6665 13.0555 3.03452 13.0555 4.72206H16.3889C16.8492 4.72206 17.2223 5.09516 17.2223 5.55539C17.2223 6.01563 16.8492 6.38873 16.3889 6.38873H15.5555L15.5554 12.4444C15.5553 14.3112 15.5553 15.2446 15.192 15.9576C14.8724 16.5848 14.3625 17.0947 13.7353 17.4143C13.0222 17.7776 12.0888 17.7776 10.222 17.7776H9.77782C7.91092 17.7776 6.97748 17.7776 6.26442 17.4143C5.6372 17.0947 5.12726 16.5848 4.80768 15.9575C4.44437 15.2445 4.44439 14.311 4.44443 12.4442L4.44456 6.38873H3.61117C3.15093 6.38873 2.77783 6.01563 2.77783 5.55539C2.77783 5.09516 3.15093 4.72206 3.61117 4.72206H6.94443ZM8.6111 4.72206C8.6111 3.955 9.23292 3.33317 9.99999 3.33317C10.767 3.33317 11.3889 3.955 11.3889 4.72206H8.6111ZM6.11124 6.38873H13.8888L13.8887 12.4444C13.8887 13.4053 13.8874 14.0257 13.8488 14.4979C13.8118 14.9507 13.749 15.1185 13.707 15.201C13.5472 15.5146 13.2922 15.7695 12.9786 15.9293C12.8962 15.9713 12.7284 16.0341 12.2756 16.0711C11.8034 16.1097 11.1829 16.1109 10.222 16.1109H9.77782C8.81687 16.1109 8.19639 16.1097 7.72415 16.0711C7.27137 16.0341 7.1035 15.9713 7.02109 15.9293C6.70748 15.7695 6.45251 15.5145 6.29272 15.2009C6.25073 15.1185 6.18794 14.9506 6.15095 14.4979C6.11238 14.0256 6.1111 13.4051 6.11111 12.4442L6.11124 6.38873Z" fill="#A72608"/>
</svg>
