<svg width="20" height="20" viewBox="0 0 20 20" fill="none" xmlns="http://www.w3.org/2000/svg">
<path fill-rule="evenodd" clip-rule="evenodd" d="M12.5808 13.7593C11.5551 14.5379 10.276 15.0001 8.88894 15.0001C5.51387 15.0001 2.77783 12.264 2.77783 8.88894C2.77783 5.51387 5.51387 2.77783 8.88894 2.77783C12.264 2.77783 15.0001 5.51387 15.0001 8.88894C15.0001 10.276 14.5379 11.5551 13.7593 12.5808L16.9782 15.7997C17.3036 16.1251 17.3036 16.6528 16.9782 16.9782C16.6528 17.3036 16.1251 17.3036 15.7997 16.9782L12.5808 13.7593ZM13.3334 8.88894C13.3334 11.3435 11.3435 13.3334 8.88894 13.3334C6.43434 13.3334 4.4445 11.3435 4.4445 8.88894C4.4445 6.43434 6.43434 4.4445 8.88894 4.4445C11.3435 4.4445 13.3334 6.43434 13.3334 8.88894Z" fill="white"/>
</svg>
