<svg width="20" height="20" viewBox="0 0 20 20" fill="none" xmlns="http://www.w3.org/2000/svg">
<path fill-rule="evenodd" clip-rule="evenodd" d="M16.2838 3.71578C15.1145 2.54655 13.2189 2.54657 12.0497 3.7158L11.3847 4.38082L11.3749 4.37109L10.1964 5.5496L10.2062 5.55935L3.67275 12.093C3.09974 12.666 2.77783 13.4432 2.77783 14.2535V16.3886C2.77783 16.6097 2.86563 16.8216 3.02191 16.9779C3.17819 17.1342 3.39015 17.222 3.61117 17.222L5.74623 17.222C6.55663 17.222 7.33383 16.9 7.90686 16.327L16.2838 7.9498C17.453 6.78059 17.4529 4.88497 16.2838 3.71578ZM11.3847 6.73786L4.85128 13.2715C4.59082 13.5319 4.4445 13.8852 4.4445 14.2535L4.4445 15.5553H5.74623C6.11459 15.5553 6.46787 15.409 6.72833 15.1485L13.2617 8.6149L11.3847 6.73786ZM14.4402 7.43637L15.1053 6.7713C15.6236 6.25297 15.6236 5.41261 15.1052 4.89428C14.5869 4.37595 13.7465 4.37595 13.2282 4.8943L12.5632 5.55933L14.4402 7.43637Z" fill="#002651"/>
</svg>
